<svg class="text-primary opacity-1" width="453" height="138" viewBox="0 0 453 138" fill="none" xmlns="http://www.w3.org/2000/svg">
					<path d="M452.303 -0.000286079V0.792195H337.93L303.294 35.4047H202.253L196.613 29.7642L130.255 29.7642L106.527 53.5151L26.2305 53.5151V52.7227L106.201 52.7227L129.928 28.995L196.939 28.995L202.58 34.6356H302.968L337.603 -0.000286079H452.303Z" fill="currentColor"></path>
					<path d="M452.297 78.3851V79.1543L354.473 79.1543L328.321 53.0026H273.617L263.502 42.9102L213.436 42.9102L180.921 75.425L87.6186 75.425L81.5818 69.3882H51.9805V68.5957H81.9081L87.9449 74.6558H180.595L213.109 42.1177L263.828 42.1177L273.944 52.2334H328.648L354.799 78.3851L452.297 78.3851Z" fill="currentColor"></path>
					<path d="M452.299 90.7848V91.554L348.531 91.554L323.405 66.4279L220.127 66.4279L177.706 108.849L137.64 108.849L128.806 100.038H41.75V99.2457H129.132L137.966 108.079L177.38 108.079L219.801 65.6587L323.731 65.6587L348.858 90.7848L452.299 90.7848Z" fill="currentColor"></path>
					<path d="M452.301 111.437V112.23L297.302 112.23L281.732 96.6364L209.29 96.6364L183.931 121.996H80.0469V121.226H183.605L208.964 95.8672L282.058 95.8672L297.628 111.437L452.301 111.437Z" fill="currentColor"></path>
					<path d="M271.641 108.08V108.849H216.191L192.207 132.833H119.648V132.064H191.88L215.864 108.08H271.641Z" fill="currentColor"></path>
					<path d="M197.777 45.2641L175.704 67.3369H119.648V66.5677H175.378L197.218 44.7281L197.777 45.2641Z" fill="currentColor"></path>
					<path d="M180.202 83.4674V84.2365L95.8964 84.2365L90.2092 89.9004H5.46094V89.1312H89.9062L95.5701 83.4674L180.202 83.4674Z" fill="currentColor"></path>
					<path d="M44.5774 97.3488C43.0482 95.8196 40.5689 95.8196 39.0398 97.3488C37.5106 98.878 37.5106 101.357 39.0398 102.886C40.5689 104.416 43.0482 104.416 44.5774 102.886C46.1066 101.357 46.1066 98.878 44.5774 97.3488Z" fill="currentColor"></path>
					<path d="M8.3079 86.6461C6.77872 85.1169 4.29941 85.1169 2.77023 86.6461C1.24104 88.1753 1.24104 90.6546 2.77023 92.1838C4.29941 93.713 6.77871 93.713 8.3079 92.1838C9.83708 90.6546 9.83709 88.1753 8.3079 86.6461Z" fill="currentColor"></path>
					<path d="M54.761 66.5524C53.2318 65.0232 50.7525 65.0232 49.2234 66.5524C47.6942 68.0816 47.6942 70.5609 49.2234 72.0901C50.7525 73.6192 53.2318 73.6192 54.761 72.0901C56.2902 70.5609 56.2902 68.0816 54.761 66.5524Z" fill="currentColor"></path>
					<path d="M30.0721 53.0713C30.0311 50.9091 28.2451 49.1896 26.0829 49.2306C23.9207 49.2716 22.2012 51.0576 22.2422 53.2198C22.2832 55.382 24.0692 57.1015 26.2314 57.0605C28.3936 57.0195 30.1131 55.2335 30.0721 53.0713Z" fill="currentColor"></path>
					<path d="M123.492 66.9646C123.492 64.802 121.739 63.0488 119.576 63.0488C117.413 63.0488 115.66 64.802 115.66 66.9646C115.66 69.1272 117.413 70.8804 119.576 70.8804C121.739 70.8804 123.492 69.1272 123.492 66.9646Z" fill="currentColor"></path>
					<path d="M84.0815 121.506C84.0815 119.343 82.3284 117.59 80.1658 117.59C78.0031 117.59 76.25 119.343 76.25 121.506C76.25 123.669 78.0031 125.422 80.1658 125.422C82.3284 125.422 84.0815 123.669 84.0815 121.506Z" fill="currentColor"></path>
					<path d="M123.652 129.693C122.122 128.164 119.643 128.164 118.114 129.693C116.585 131.223 116.585 133.702 118.114 135.231C119.643 136.76 122.122 136.76 123.652 135.231C125.181 133.702 125.181 131.223 123.652 129.693Z" fill="currentColor"></path>
					<path d="M221.777 80.112C220.247 78.5828 217.768 78.5828 216.239 80.112C214.71 81.6411 214.71 84.1204 216.239 85.6496C217.768 87.1788 220.247 87.1788 221.777 85.6496C223.306 84.1204 223.306 81.6411 221.777 80.112Z" fill="currentColor"></path>
					<path d="M169.945 49.2281V54.9619H175.679V49.2281H169.945Z" fill="currentColor"></path>
					<path d="M155.848 49.2281V54.9619H161.581V49.2281H155.848Z" fill="currentColor"></path>
					<path d="M141.766 49.2281V54.9619H147.499V49.2281H141.766Z" fill="currentColor"></path>
					<path d="M308.512 80.0182V85.752H314.246V80.0182H308.512Z" fill="currentColor"></path>
					<path d="M283.973 80.0182V85.752H289.706V80.0182H283.973Z" fill="currentColor"></path>
					<path d="M259.449 80.0182V85.752H265.183V80.0182H259.449Z" fill="currentColor"></path>
				</svg>